# xmcd
#
# Track frame offsets:
#	150
#	17823
#	39864
#	51505
#	67402
#	81749
#	99596
#	117020
#	135097
#	154967
#	181644
#	201993
#	219848
#	238821
#	252576
#	266521
#	278142
#	294733
#	309278
#	321669
#
# Disc length: 4675 seconds
#
# Revision: 0
# Processed by: cddbd v1.5.2PL0 Copyright (c) Steve Scherf et al.
# Submitted via: audiograbber 1.83.01
#
DISCID=30124114
DTITLE=Various Artist - 100 Hits Rock Jukebox CD2
DYEAR=2016
DGENRE=Rock
TTITLE0=Europe - The Final Countdown
TTITLE1=Meat Loaf - Bat Out Of Hell
TTITLE2=Judas Priest - Breaking The Law
TTITLE3=Kenny Loggins - Danger Zone
TTITLE4=Gillan - Message In A Bottle
TTITLE5=Alice Cooper - Poison
TTITLE6=Cheap Trick - Mighty Wings (From 'Top Gun' Original Soundtrack)
TTITLE7=REO Speedwagon - Take It On The Run
TTITLE8=Status Quo - Beginning Of The End
TTITLE9=Deep Purple - The Battle Rages On
TTITLE10=Blue Öyster Cult - Burnin' For You
TTITLE11=John Farnham - You're The Voice
TTITLE12=Mr Mister - Kyrie
TTITLE13=J J Cale - Hold On Baby
TTITLE14=The Steve Miller Band - Rock 'N Me
TTITLE15=Captain Beefheart and His Magic Band - Call On Me
TTITLE16=The Guess Who - No Time
TTITLE17=Rick Springfield - Jessie's Girl
TTITLE18=Johnny Winter - Johnny B Goode
TTITLE19=The Jeff Healey Band - I Think I Love You Too Much
EXTD=
EXTT0=
EXTT1=
EXTT2=
EXTT3=
EXTT4=
EXTT5=
EXTT6=
EXTT7=
EXTT8=
EXTT9=
EXTT10=
EXTT11=
EXTT12=
EXTT13=
EXTT14=
EXTT15=
EXTT16=
EXTT17=
EXTT18=
EXTT19=
PLAYORDER=
